<?xml version="1.0" encoding="UTF-8" standalone="no"?>
				  <svg
				  xmlns:rdf="http://www.w3.org/1999/02/22-rdf-syntax-ns#"
				  xmlns:svg="http://www.w3.org/2000/svg"
				  xmlns="http://www.w3.org/2000/svg"
				  xmlns:xlink="http://www.w3.org/1999/xlink"
				  version="1.1"  width="200" height="220">
<path style="fill:#2a3030; stroke:none;" d="M0 0L0 2L0 166C16.7521 157.321 30.64 145.489 49 139.255C55.0083 137.214 63.4974 134.017 64.7716 126.999C67.3486 112.806 52.045 96.658 47 84L45 84L45 86L44 85L44 83C46.6124 76.6683 43.4171 73.7569 41 68L43 68L46 74L48 74L48 72C47.276 66.6231 44.4239 60.7262 48 56L47 55L45 55L43 64L41 64L41 62C42.3823 54.8724 43 48.2616 43 41L41 41L37 42L37 40C38.9655 24.9091 66.6866 -5.35538 82 12L83 11L89 13C89.7731 23.1319 104.651 26.8491 112 32L113 31C107.094 19.6476 94.3557 13.9544 85 6L86 5L88 5C97.0659 9.24074 106.53 13.7764 116 17L116 19L114 19L107 16L106 17C111.371 22.8764 118.434 27.0493 123.907 33C129.515 39.0982 130.826 46.8913 140 47L140 49C138.7 49.6498 139 49.1468 139 51L140 52L144 53L144 55L142 55L138 55L138 57L143 58L143 61C143.65 62.2997 143.147 62 145 62L145 64C141.033 66.6545 137.144 70.3026 134 65L132 65L130 65L130 67L130 73C131.3 72.3502 131 72.8532 131 71L132 72L132 74C133.867 82.0711 125.765 87.5541 124 95L127 95L128 96L127 97L125 97L125 99C126.409 109.454 132.942 118.663 134 129C141.277 130.075 147.948 133.56 155 135.573C170.015 139.857 191.743 140.842 199 157L200 156L200 0L198 0L0 0z"/>
<path style="fill:#8e7856; stroke:none;" d="M85 5L85 7C94.9991 14.6295 105.208 20.8019 113 31L112 32C105.111 25.1922 90.6548 23.6927 89 13L86 13C85.4549 11.3648 85.6352 11.5451 84 11L83 12L83 14C91.4533 27.2921 107.517 31.5622 117 44L116 45L115 44C113.205 41.4925 111.508 39.7952 109 38L108 39C111.507 44.0438 114.486 48.3648 117 54C118.3 53.3502 118 53.8532 118 52L121 52L121 54L122 55L126 53L126 55C125.455 56.6351 125.635 56.4549 124 57L124 59L125 64L120 64L120 66L119 70L120 71L121 70L121 67L123 67C124.326 70.7059 125.791 72.7128 129 75L130 74L130 65L132 65L134 65L134 67C138.948 70.2972 142.799 66.6651 145 62L143 62L143 58L140 58L138 57L138 55L140 55L144 55L144 53L139 51L139 49C140.3 48.3501 140 48.8532 140 47L138 47C131.589 45.9807 130.157 39.6734 126.482 35C121.064 28.1096 113.939 21.7725 106 18L106 16L108 16L115 19L116 18L115 17C106.892 11.5526 94.7902 5.86012 85 5z"/>
<path style="fill:#8a7758; stroke:none;" d="M37 42L39 42L43 41L43 43L43 54L44 53L44 44L46 44C46.6499 45.2997 46.1468 45 48 45L48 42C49.8668 39.6842 51.2301 37.8665 52 35L50 35C47.3489 23.8645 51.6809 21.1868 62 22L62 24C60.5269 28.995 61.4544 33.1243 63 38L64 37L64 35C62.8412 30.1192 63.6123 25.9124 64 21L66 21C68.9354 28.6473 71.7021 31.3147 80 33L81 31L81 28L77 30C77 28.1468 77.2997 28.6498 76 28L76 24L78 24L88 29L89 28L88 27L91 27L90 26C85.1884 21.1449 80.0076 16.3155 81 9L79 8C59.8831 7.1792 37.2487 19.6955 37 42z"/>
<path style="fill:#050000; stroke:none;" d="M80 10L80 12C84.1821 26.4839 101.047 32.3766 108 46L110 46L112 45L112 47L108 48L108 50L109 57L111 57L111 51L113 51C115.467 61.7614 114.72 73.4785 117.313 83.9105C118.819 89.97 121.665 95.6256 122.78 102C124.171 109.95 125.925 124.698 132.558 130.258C135.37 132.615 140.575 132.799 144 134.14C162.343 141.321 189.949 142.422 199 163L200 162C198.661 140.971 170.521 139.905 155 135.279C147.991 133.19 141.345 129.641 134 129C133.425 117.918 125.918 108.243 125 97L127 97L128 96L127 95L125 95L124 94L124 92C130.363 86.2983 133.555 79.4097 132 71L131 72L130 73C128.086 79.7279 122.431 87.3986 119.628 76C118.683 72.1562 119.919 67.9167 120 64L125 64L125 62L124 57L126 57L126 53L124 53C122.7 53.6498 123 53.1468 123 55L121 55L121 53C119.222 52.0446 118.979 52.2338 118 54L117 53C114.543 47.4918 112.27 43.3751 108 39L109 38L115 45L117 45L117 43C106.896 29.7758 88.7447 26.0893 82 10L80 10z"/>
<path style="fill:#1d0d03; stroke:none;" d="M69 19L71 19C73.2345 16.7039 74.8017 16.2297 78 16L78 14C73.796 8.05072 66.2255 11.9733 69 19z"/>
<path style="fill:#33230b; stroke:none;" d="M58 17L58 19L60 19L66 19L66 17L66 14L58 17z"/>
<path style="fill:#2c1b01; stroke:none;" d="M52 35L52 37C47.6609 41.4739 48 46.0833 48 52L50 52C51.1505 49.9809 52.0148 49.2766 54 48L54 46C52.4181 43.9433 52.1744 42.6125 52 40L54 40C55.7685 37.4146 55.9275 35.1157 56 32L54 32C52.5215 32.9857 52.7968 33 51 33L51 31L53 22L55 22L55 24L55 28C56.2997 27.3502 56 27.8532 56 26L58 26L58 28C57.9993 34.3184 56.3593 38.9838 55 45L57 45L57 43L59 43L59 46L62 52L65 52C67.9473 54.0737 70.4488 55.3594 74 56L73 54C66.9281 50.399 61.6433 46.8089 63 39L65 39L65 41C65.514 44.1186 66.3887 45.2288 69 47L70 46C69.8172 42 69.1455 38.4146 67 35L68 34C78.7681 35.6119 81.0848 47.6883 90.0046 51.2616C94.2738 52.9718 100.342 53.9779 102 49L100 49C89.6071 47.5707 84.9222 39.9286 77.5756 33.3943C72.3488 28.7453 68.1804 28.8346 67 21L65 21C62.1198 26.4174 63.2641 32.1771 64 38L63 37C61.2914 31.6101 61.2987 27.5539 62 22C58.7951 21.595 54.2598 20.0844 51.3179 22.0285C47.1983 24.751 48.4625 32.7066 52 35z"/>
<path style="fill:#2e1d07; stroke:none;" d="M70 21L70 23L71 28L73 28L73 26L72 21L70 21z"/>
<path style="fill:#c29875; stroke:none;" d="M53 22L52 23L51 33L53 33L56 32L56 34C55.3727 37.0751 54.7187 38.4267 52 40L52 42C52.3067 44.1227 52.3821 44.686 54 46L54 48L53 49C50.636 49.4825 50.4825 49.636 50 52L48 52L48 50C47.7322 46.6023 47.2053 45.2851 44 44L44 46L41 64L43 64L45 55L47 55C52.4185 64.3866 55.5281 80.1762 56 91L55 90L52 84L51 85L52 86C53.5048 101.015 68.8655 111.144 69 126L70 125L73 125L73 128C83.1358 145.349 92.3978 162.825 101 181L102 180C106.976 158.492 120.255 138.079 122 116L123 117C123.81 119.729 123.979 122.15 124 125L125 124C125.302 109.303 120.656 96.743 117.313 82.9606C114.769 72.472 116.405 61.6494 113 51L111 51L111 53L111 57L109 57L108 48L111 48L112 47L112 45L110 45L108 46L108 44C102.653 36.7809 97.8496 27.5392 88 27C89.8284 30.5273 92.2274 33.1616 95 36L94 37C91.1496 34.5763 88.3802 32.6068 85 31L84 32L85 33C88.4913 35.6905 91.9311 38.2884 96 40L96 42L95 43C87.4112 42.1548 85.0311 35.6631 79 32L78 33L78 35C85.3792 42.3792 91.0318 48.7724 102 49L102 51C86.3888 58.0991 81.5918 34.4719 67 34C68.4167 38.3554 69.7895 42.3938 70 47L68 47C66.1571 44.2749 65.2425 42.2967 65 39L63 39C60.7442 47.4626 67.3771 51.5105 74 55L73 56L71 56C68.2237 53.6223 65.6237 52.4739 62 52L62 50C60.5799 47.6944 59.6713 45.6245 59 43L57 43L57 45L55 45L55 43C58.5376 37.6404 58 32.21 58 26L56 26L56 28L55 27L55 22L53 22z"/>
<path style="fill:#270902; stroke:none;" d="M76 24L76 26L77 30L79 30L80 28L81 29L81 31C79.7003 31.6498 80 31.1468 80 33L82 33C85.3935 39.3377 88.563 42.8202 96 43L96 41C92.5608 37.5031 88.5898 34.7402 84 33L84 31L86 31L94 37L95 36C90.6367 29.8612 83.5752 24.9908 76 24z"/>
<path style="fill:#0e0e00; stroke:none;" d="M121 38L121 40C118.574 43.2061 119.1 46.2066 120 50L122 50L127 48L127 46C125.925 42.125 124.988 39.2881 121 38z"/>
<path style="fill:#40220b; stroke:none;" d="M74 39C73.2062 45.5559 71.7335 49.1508 79 52L80 50L80 47L78 47L78 49L76 49L76 47L76 39L74 39z"/>
<path style="fill:#0f0801; stroke:none;" d="M46 56L46 58L48 74L46 74L44 68L42 68L41 69L41 71C45.5949 76.4848 44.4145 79.3999 44 86C45.2997 85.3502 45 85.8532 45 84L47 84L48 85C49.3477 98.0867 71.8856 116.795 63.2577 129.957C59.2908 136.008 50.4811 138.395 44 140.505C30.0682 145.042 0.0586319 157.411 0 174L1 173C10.3807 159.267 25.9453 151.751 41 145.603C50.9932 141.522 63.6985 139.096 68 128L70 128C75.4382 150.766 97.7054 166.554 101 191L103 191C104.089 166.03 130.473 141.282 123 116L122 117C117.904 138.738 103.926 158.938 102 181L101 180C92.6261 162.307 78.3442 143.551 73 125L71 125L70 126L69 125C68.8801 111.751 55.9482 97.5017 51 85L52 84L53 85L55 91L56 90C55.4951 78.4199 50.5409 67.443 49 56L46 56z"/>
<path style="fill:#090604; stroke:none;" d="M95 57L95 59C90.0095 59 82.8818 57.3303 81 63L83 63L105 65L105 63L104 59L102 59L102 61L100 61L100 59L95 57z"/>
<path style="fill:#210f03; stroke:none;" d="M133 59L133 61L139 64L139 62C137.022 60.2675 135.566 59.5975 133 59z"/>
<path style="fill:#0d0200; stroke:none;" d="M54 71L55 72C59.8966 69.4344 64.5898 67.2522 70 66L70 64L68 64C61.5195 64.5114 57.1502 64.8933 54 71z"/>
<path style="fill:#673616; stroke:none;" d="M74 65L74 67L75 68L77 68L77 66L74 65z"/>
<path style="fill:#150f0b; stroke:none;" d="M84 67L84 69L84 71L86 71L87 75L89 75C94.7571 75 100.321 75.0543 106 74L106 72L104 72C98.8411 72.652 93.905 74.2682 91 69C96.7294 71.7565 101.905 70.1258 108 70L108 68L84 67z"/>
<path style="fill:#1d0b02; stroke:none;" d="M121 67L121 69L122 78L124 78L127 73L125 73L123 67L121 67z"/>
<path style="fill:#130c05; stroke:none;" d="M58 79L73 74L73 72C66.1285 70.7251 59.2923 70.7011 58 79z"/>
<path style="fill:#d4af97; stroke:none;" d="M119 71L119 73C120.061 83.5734 128.436 86.1316 129 74L127 74L123 78L122 77L122 71L119 71z"/>
<path style="fill:#5c3722; stroke:none;" d="M81 72L81 74L85 77L86 76C84.3761 73.9564 83.3572 73.1036 81 72z"/>
<path style="fill:#220703; stroke:none;" d="M58 81L58 83L60 83L73 78L73 76C67.8787 77.1848 62.8045 78.8703 58 81z"/>
<path style="fill:#5b3a26; stroke:none;" d="M73 80L73 82L75 82L78 82L78 80L77 79L73 80z"/>
<path style="fill:#150603; stroke:none;" d="M86 82L86 84L91 86L91 88L86 88L86 91C82.1301 91.8893 78.8969 91.4899 75 91L75 93L75 98L77 98L92 94L93 86L95 86L99 87L99 89C97.3648 89.5451 97.5451 89.3648 97 91L98 92L100 92C101.314 93.6179 101.877 93.6933 104 94L104 96C102.074 100.566 102.108 104.18 103 109L105 109L105 107C105.04 92.6523 103.506 82.1565 86 82z"/>
<path style="fill:#3c1912; stroke:none;" d="M74 84L74 86L77 87L77 85L74 84z"/>
<path style="fill:#0e0100; stroke:none;" d="M110 88L110 90L109 105L111 105C115.658 101.628 113.001 93.2823 113 88L110 88z"/>
<path style="fill:#31160d; stroke:none;" d="M68 103L70 103L73 89L71 89C66.7423 93.2664 67.2967 97.406 68 103z"/>
<path style="fill:#3b1705; stroke:none;" d="M78 100L78 102C83.8297 101.746 89.6463 100.303 95 98L96 99L95 100L88 103L88 105L90 105C94.6945 103.137 97.8649 100.993 101 97L100 96L78 100z"/>
<path style="fill:#0d0201; stroke:none;" d="M61 98L61 100C63.617 104.798 66.1571 109.858 68 115L70 115L70 113C68.4026 107.412 66.3733 100.793 61 98z"/>
<path style="fill:#3f260f; stroke:none;" d="M118 99L118 102C115.087 106.637 115.004 111.664 115 117L113 117L107 117L107 119L109 119L109 121L107 121C103.972 123.033 102.237 124.542 101 128L99 128L98 125L96 125L93 126L93 128L95 128L95 130L92 130C90.5215 130.986 90.7968 131 89 131L89 129L91 129L91 127L89 127C80.0628 128.981 77.0909 123.752 74 116L72 116L72 118C74.0807 123.219 78.1936 128.342 78 134L80 134C86.3566 132.82 92.8799 132.774 99 130.438C103.98 128.538 107.636 124.971 113 124L113 121L114 120L116 120C118.154 113.22 119.853 106.136 120 99L118 99z"/>
<path style="fill:#170300; stroke:none;" d="M72 102L72 104C75.9992 105.498 79.742 105.965 84 106L83 105C79.233 103.036 76.2757 101.198 72 102z"/>
<path style="fill:#825c4e; stroke:none;" d="M76 105L76 107L83 118L85 118L84 116L86 113L85 112L83 112L83 110L85 110L85 108L83 108L78 108L79 107L84 107L83 106L76 105z"/>
<path style="fill:#3f260f; stroke:none;" d="M71 106L71 108C71.9857 109.479 72 109.203 72 111L74 111L74 109C74 107.203 73.9857 107.479 73 106L71 106z"/>
<path style="fill:#130804; stroke:none;" d="M84 117L86 117L91 112L90 111C86.3702 112.113 84.658 113.17 84 117z"/>
<path style="fill:#5d3009; stroke:none;" d="M93 115L93 117L97 118L97 116L93 115z"/>
<path style="fill:#fcfcfc; stroke:none;" d="M125 117L125 119C123.896 144.637 103.528 165.533 103 191L101 191C99.898 177.509 92.6899 169.579 85.9367 158.83C83.6569 155.202 83.2432 150.712 80.9059 147C76.8667 140.585 69.2599 136.942 69 129L67 130C51.6843 149.922 17.7611 146.809 3.1088 169.004C-4.79394 180.975 0 206.012 0 220L2 220L200 220L200 218L200 213L198 213L196 213L196 216L195 217L195 209L200 209L200 207L200 177L199 178C194.75 183.461 190.383 190.49 188 197L186 197L186 195C189.933 186.947 198.521 177.847 199.782 169C201.405 157.617 190.067 149.778 181 145.873C169.001 140.704 156.133 138.466 144 133.731C140.364 132.312 135.434 132.394 132.558 129.566C129.303 126.366 128.573 121.108 127 117L125 117z"/>
<path style="fill:#ac9996; stroke:none;" d="M68 128L69 136L71 136C70.9792 133.15 70.8102 130.729 70 128L68 128z"/>
<path style="fill:#44180c; stroke:none;" d="M83 135L83 137L87 137L87 135L83 135z"/>
<path style="fill:#090909; stroke:none;" d="M128 136L127 137C125.449 138.715 124.756 139.823 124 142L127 142L128 143L127 144L127 152L130 152C132.013 153.225 133.659 153.645 136 154L136 152L128 136z"/>
<path style="fill:#020202; stroke:none;" d="M68 142L68 145L61 156L62 157C65.0939 157.566 67.7877 158.494 70 156L72 156L74 159L75 158L75 156C73.875 150.55 73.2796 144.769 68 142z"/>
<path style="fill:#83827f; stroke:none;" d="M126 144C125.39 148.79 123.843 152.083 125 157L127 157L127 155C127 151.3 127.44 147.432 126 144z"/>
<path style="fill:#7c7b79; stroke:none;" d="M120 154L120 156L120 158L121 157L122 154L120 154z"/>
<path style="fill:#626262; stroke:none;" d="M70 156L70 158L67 158L68 159L69 160C71.7546 161.234 73.9824 162.55 77 163L77 161L76 156L75 157L75 159L73 158L70 156z"/>
<path style="fill:#3c3c3c; stroke:none;" d="M43 158L43 160L43 163L45 163L46 158L43 158z"/>
<path style="fill:#525252; stroke:none;" d="M119 160L119 162L119 164L120 163L121 161C120.35 159.7 120.853 160 119 160z"/>
<path style="fill:#adadad; stroke:none;" d="M20 161L20 163C23.8295 165.929 26.5932 166.734 27 172L29 172C28.9221 165.404 26.672 162.209 20 161z"/>
<path style="fill:#8d8e8c; stroke:none;" d="M194 166L194 168L196 168L196 166L194 166z"/>
<path style="fill:#969696; stroke:none;" d="M157 167L157 169L157 176L159 176L159 167L157 167z"/>
<path style="fill:#565455; stroke:none;" d="M199 171L199 173C193.106 179.154 187.279 188.497 186 197L188 197C191.646 190.15 202.289 179.145 199 171z"/>
<path style="fill:#313131; stroke:none;" d="M80 173L80 175L83 184L85 184L85 182C84.1004 178.959 84.008 176.169 84 173L82 173L80 173z"/>
<path style="fill:#3b3b3b; stroke:none;" d="M157 176L157 178L157 180L159 180L159 176L157 176z"/>
<path style="fill:#101011; stroke:none;" d="M112 182L112 184C107.934 187.405 107.058 190.822 107 196L108 195C110.8 191.535 112.312 187.114 114 183C113.35 181.7 113.853 182 112 182z"/>
<path style="fill:#a5a5a5; stroke:none;" d="M161 189L161 191L161 196L163 196L164 189L161 189z"/>
<path style="fill:#4b4b4b; stroke:none;" d="M31 195L31 197L31 200L33 200C32.6974 197.706 32.4215 196.788 31 195z"/>
<path style="fill:#898989; stroke:none;" d="M41 195L41 197L45 198L45 196L41 195z"/>
<path style="fill:#8d8d8d; stroke:none;" d="M108 195L107 196L107 200L109 200L108 195z"/>
<path style="fill:#494949; stroke:none;" d="M161 196L161 198L161 200L163 200L163 196L161 196z"/>
<path style="fill:#5a5a5a; stroke:none;" d="M9 209L9 211L10 217L11 216L12 209L9 209z"/>
<path style="fill:#707070; stroke:none;" d="M87 209L87 211L87 216L88 215L88 213L93 213L93 211L91 211C89.5215 211.986 89.7968 212 88 212L88 210L90 210L89 209L87 209z"/>
<path style="fill:#949494; stroke:none;" d="M108 209L108 211C108.43 214.741 109.186 216.339 113 217L113 215C112.412 211.517 111.237 210.353 108 209z"/>
<path style="fill:#8a8a8a; stroke:none;" d="M121 209L121 211L122 217L124 217C126.85 213.199 125.024 210.686 121 209z"/>
<path style="fill:#888888; stroke:none;" d="M181 209L181 211L182 217L184 217L186 217L186 215C185.412 211.517 184.237 210.353 181 209z"/>
<path style="fill:#716d6a; stroke:none;" d="M195 209L195 211L195 217L196 216L196 213L199 213L200 212L196 212L196 210L200 210L199 209L195 209z"/>
<path style="fill:#8c8c8c; stroke:none;" d="M95 210L95 212L95 216L96 215L96 213L98 213L98 215L99 216L101 216L103 216L104 212L103 211L101 211C98.9479 210.126 97.2528 210.047 95 210z"/>
<path style="fill:#747474; stroke:none;" d="M142 216L142 214L138 214L138 212L142 212L142 210C135.466 210.509 135.466 215.491 142 216z"/>
<path style="fill:#8c8c8c; stroke:none;" d="M151 211L151 213L151 216L152 215C152.986 213.521 153 213.797 153 212L155 212L155 217L157 217L166 216L167 212L166 211C160.746 210.585 156.257 210.336 151 211z"/>
<path style="fill:#c7c3c0; stroke:none;" d="M196 210L196 212L200 212L200 210L196 210z"/>
<path style="fill:#666666; stroke:none;" d="M3 211L3 213L3 216L4 215L6 211L3 211z"/>
<path style="fill:#8e8e8e; stroke:none;" d="M36 211L36 213L36 216L37 215L37 213L39 213L39 215L40 216L41 215L41 213L41 211L39 211L36 211z"/>
<path style="fill:#7b7b7b; stroke:none;" d="M68 211L68 213L68 216L69 215L69 212L71 212L71 216L72 215L72 211L70 211L68 211z"/>
<path style="fill:#797979; stroke:none;" d="M74 211L75 216L76 215L76 211L74 211z"/>
<path style="fill:#939393; stroke:none;" d="M172 211L172 213L172 216L173 215L173 213L175 213C175 214.797 175.014 214.521 176 216L177 215L177 213L177 211L175 211L172 211z"/>
</svg>
